<svg width="16" height="9" viewBox="0 0 16 9" fill="none" xmlns="http://www.w3.org/2000/svg">
<path d="M8.908 8.623L15.047 2.483C15.547 1.984 15.547 1.168 15.047 0.668L14.875 0.494C14.6334 0.254314 14.3068 0.119821 13.9665 0.119821C13.6262 0.119821 13.2996 0.254314 13.058 0.494L8 5.553L2.94 0.493C2.69877 0.253741 2.37277 0.119492 2.033 0.119492C1.69324 0.119492 1.36724 0.253741 1.126 0.493L0.953003 0.668C0.453003 1.168 0.453003 1.984 0.953003 2.484L7.093 8.623C7.33428 8.86256 7.6605 8.997 8.0005 8.997C8.34051 8.997 8.66673 8.86256 8.908 8.623Z" fill="black"/>
</svg>
